<?xml version="1.0" encoding="UTF-8"?>
<svg width="28px" height="19px" viewBox="0 0 28 19" version="1.1" xmlns="http://www.w3.org/2000/svg" xmlns:xlink="http://www.w3.org/1999/xlink">
    <!-- Generator: Sketch 60 (88103) - https://sketch.com -->
    <title>Combined Shape</title>
    <desc>Created with Sketch.</desc>
    <g id="Page-1" stroke="none" stroke-width="1" fill="none" fill-rule="evenodd">
        <path d="M13.9865601,0.000837411625 C15.5787826,0.00793478519 22.4566619,0.0682624605 24.342532,0.5810477 C25.5123586,0.894089655 26.4348421,1.81044128 26.7496993,2.97296151 C27.253554,4.80143202 27.3069315,8.33736839 27.3120392,9.28430152 L27.3121055,9.61028385 C27.3085247,10.2404957 27.2655541,14.1028763 26.7499076,16.0495024 C26.4348421,17.2118156 25.512567,18.1283743 24.342532,18.4412092 C22.3309372,18.9673301 14.6397299,18.9982784 13.7418425,19.0000989 L13.5706613,19.0000944 C12.6750249,18.9982018 5.00233359,18.966027 2.96975403,18.4190561 C1.79971904,18.1060141 0.877443936,17.1894554 0.562378416,16.0271423 C0.0624596272,14.1593805 0.00691309512,10.4548769 0.000741258227,9.65471268 L0.000741258227,9.34612049 C0.00691309512,8.54960285 0.0624596272,4.86041494 0.562378416,2.97296151 C0.877235519,1.8106483 1.82222372,0.871729516 2.96954567,0.558894586 C4.85541578,0.0656562117 11.7331328,0.00762816769 13.3253172,0.000801338978 Z M10.9339102,5.43174872 L10.9339102,13.5683551 L18.043097,9.50005193 L10.9339102,5.43174872 Z" id="Combined-Shape" fill="#FF0000" fill-rule="nonzero"></path>
    </g>
</svg>