<?xml version="1.0" encoding="UTF-8"?>
<svg width="24px" height="24px" viewBox="0 0 24 24" version="1.1" xmlns="http://www.w3.org/2000/svg" xmlns:xlink="http://www.w3.org/1999/xlink">
    <!-- Generator: Sketch 59.1 (86144) - https://sketch.com -->
    <title>Instagram / Color Copy 10-color</title>
    <desc>Created with Sketch.</desc>
    <defs>
        <linearGradient x1="50%" y1="0%" x2="50%" y2="95.8748164%" id="linearGradient-1">
            <stop stop-color="#9C3AA6" offset="0%"></stop>
            <stop stop-color="#FF651A" offset="100%"></stop>
        </linearGradient>
    </defs>
    <g id="Page-1" stroke="none" stroke-width="1" fill="none" fill-rule="evenodd">
        <g id="About--2" transform="translate(-299.000000, -691.000000)" fill="url(#linearGradient-1)">
            <path d="M311.796813,691.00084 C313.9232,691.004502 314.365308,691.021132 315.435344,691.06978 C316.673999,691.126074 317.519955,691.322111 318.260173,691.608781 C319.025429,691.90507 319.674413,692.301564 320.321411,692.946201 C320.968363,693.590885 321.36628,694.237547 321.66368,695.000065 C321.951332,695.737635 322.148073,696.580565 322.204569,697.814789 C322.255345,698.923645 322.271365,699.355764 322.274137,701.702793 L322.274137,703.488576 C322.271365,705.835572 322.255345,706.267691 322.204569,707.376547 C322.148073,708.610771 321.951332,709.453701 321.66368,710.191271 C321.36628,710.953789 320.968363,711.600451 320.321411,712.245134 C319.674413,712.889772 319.025429,713.286266 318.260173,713.582601 C317.519955,713.869224 316.673999,714.065262 315.435344,714.121556 C314.279705,714.174096 313.856482,714.18929 311.252957,714.191136 L310.02168,714.191136 C307.418118,714.18929 306.994895,714.174096 305.839256,714.121556 C304.600601,714.065262 303.754644,713.869224 303.014426,713.582601 C302.249171,713.286266 301.600187,712.889772 300.953189,712.245134 C300.306237,711.600451 299.908319,710.953789 299.610966,710.191271 C299.323268,709.453701 299.126526,708.610771 299.070031,707.376547 C299.021208,706.310339 299.004518,705.869813 299.000843,703.751032 L299.000843,701.440333 C299.004518,699.321523 299.021208,698.880997 299.070031,697.814789 C299.126526,696.580565 299.323268,695.737635 299.610966,695.000065 C299.908319,694.237547 300.306237,693.590885 300.953189,692.946201 C301.600187,692.301564 302.249171,691.90507 303.014426,691.608781 C303.754644,691.322111 304.600601,691.126074 305.839256,691.06978 C306.909292,691.021132 307.3514,691.004502 309.477817,691.00084 Z M311.517688,693.089721 L309.756945,693.089721 C307.444668,693.092224 307.034996,693.106906 305.934832,693.156923 C304.800207,693.208475 304.184021,693.397378 303.773954,693.556179 C303.230754,693.766532 302.843091,694.017804 302.435888,694.423597 C302.028639,694.829343 301.776464,695.215619 301.565356,695.756875 C301.405986,696.165475 301.216404,696.779457 301.164667,697.910023 C301.11254,699.048414 301.098654,699.44484 301.096987,701.992869 L301.096987,703.198504 C301.098654,705.746495 301.11254,706.142922 301.164667,707.281313 C301.216404,708.411879 301.405986,709.025861 301.565356,709.434461 C301.776464,709.975717 302.028685,710.361993 302.435888,710.767739 C302.843091,711.173532 303.230754,711.424804 303.773954,711.635157 C304.184021,711.793957 304.800207,711.982861 305.934832,712.034413 C307.1618,712.090201 307.529784,712.10203 310.637323,712.10203 C313.744816,712.10203 314.112846,712.090201 315.339768,712.034413 C316.474393,711.982861 317.090579,711.793957 317.500646,711.635157 C318.043845,711.424804 318.431508,711.173532 318.838711,710.767739 C319.245961,710.361993 319.498135,709.975717 319.709244,709.434461 C319.868614,709.025861 320.058196,708.411879 320.109933,707.281313 C320.158198,706.227247 320.173678,705.809296 320.17703,703.730484 L320.17703,701.460882 C320.173678,699.382039 320.158198,698.964089 320.109933,697.910023 C320.058196,696.779457 319.868614,696.165475 319.709244,695.756875 C319.498135,695.215619 319.245961,694.829343 318.838711,694.423597 C318.431508,694.017804 318.043845,693.766532 317.500646,693.556179 C317.090579,693.397378 316.474393,693.208475 315.339768,693.156923 C314.239603,693.106906 313.829932,693.092224 311.517688,693.089721 Z M310.637323,696.641139 C313.937723,696.641139 316.613207,699.307052 316.613207,702.595691 C316.613207,705.884284 313.937723,708.550196 310.637323,708.550196 C307.336876,708.550196 304.661393,705.884284 304.661393,702.595691 C304.661393,699.307052 307.336876,696.641139 310.637323,696.641139 Z M310.637323,698.730445 C308.494922,698.730445 306.7582,700.460954 306.7582,702.595691 C306.7582,704.730381 308.494922,706.460891 310.637323,706.460891 C312.779678,706.460891 314.5164,704.730381 314.5164,702.595691 C314.5164,700.460954 312.779678,698.730445 310.637323,698.730445 Z M316.849306,695.01438 C317.620567,695.01438 318.245807,695.637383 318.245807,696.405885 C318.245807,697.174386 317.620567,697.797344 316.849306,697.797344 C316.078092,697.797344 315.452851,697.174386 315.452851,696.405885 C315.452851,695.637383 316.078092,695.01438 316.849306,695.01438 Z" id="Instagram-/-Color-Copy-10"></path>
        </g>
    </g>
</svg>