<?xml version="1.0" encoding="UTF-8"?>
<svg width="34px" height="30px" viewBox="0 0 34 30" version="1.1" xmlns="http://www.w3.org/2000/svg" xmlns:xlink="http://www.w3.org/1999/xlink">
    <!-- Generator: Sketch 60 (88103) - https://sketch.com -->
    <title>Shape</title>
    <desc>Created with Sketch.</desc>
    <g id="Page-1" stroke="none" stroke-width="1" fill="none" fill-rule="evenodd" opacity="0.600000024">
        <g id="jobs" transform="translate(-359.000000, -1024.000000)" fill="#000000" fill-rule="nonzero">
            <g id="Group-8" transform="translate(334.000000, 999.000000)">
                <path d="M58.5337832,52.7707397 L47.0908479,43.5196864 C48.3417343,41.6344839 49.0727171,39.3796914 49.0727171,36.9574741 C49.0727171,30.3638697 43.6735559,25 37.0365692,25 C30.3995824,25 25,30.3638697 25,36.9570556 C25,43.5502414 30.3995824,48.9145297 37.0361479,48.9145297 C40.3270451,48.9145297 43.312067,47.5948043 45.4873202,45.4609761 L56.9382605,54.7183079 C57.1729334,54.9074978 57.4547936,55 57.7353899,55 C58.1027772,55 58.466794,54.8417836 58.7166342,54.5370706 C59.1569092,53.9992187 59.0751739,53.2085554 58.5337832,52.7707397 Z M36.8604651,46.3157895 C31.6285747,46.3157895 27.372093,42.0658968 27.372093,36.8421053 C27.372093,31.6183138 31.6285747,27.3684211 36.8604651,27.3684211 C42.0923555,27.3684211 46.3488372,31.6183138 46.3488372,36.8421053 C46.3488372,42.0658968 42.0923555,46.3157895 36.8604651,46.3157895 Z" id="Shape"></path>
            </g>
        </g>
    </g>
</svg>